{"extensionsUsed" : ["KHR_materials_unlit"], "accessors" : [{"bufferView" : 0, "byteOffset" : 0, "componentType" : 5123, "count" : 372, "type" : "SCALAR", "max" : [365], "min" : [0]}, {"bufferView" : 1, "byteOffset" : 0, "componentType" : 5126, "count" : 366, "type" : "VEC3", "max" : [0.25, 1.850000023841858, 0.25], "min" : [-0.25, 0, -0.25], "name" : "POSITION"}, {"bufferView" : 1, "byteOffset" : 12, "componentType" : 5126, "count" : 366, "type" : "VEC3", "max" : [1.0000044107437134, 1.0000044107437134, 1.0000044107437134], "min" : [-1.0000044107437134, -1.0000044107437134, -1.0000044107437134], "name" : "NORMAL"}, {"bufferView" : 1, "byteOffset" : 24, "componentType" : 5126, "count" : 366, "type" : "VEC2", "max" : [6.889763832092285, 59.055118560791016], "min" : [-4.921259880065918, -6.889763832092285], "name" : "TEXCOORD_0"}, {"bufferView" : 0, "byteOffset" : 744, "componentType" : 5123, "count" : 48, "type" : "SCALAR", "max" : [23], "min" : [0]}, {"bufferView" : 2, "byteOffset" : 0, "componentType" : 5126, "count" : 24, "type" : "VEC3", "max" : [0.22499999403953552, 1.5499999523162842, 0.22499999403953552], "min" : [-0.22499999403953552, 0, -0.22499999403953552], "name" : "POSITION"}, {"bufferView" : 2, "byteOffset" : 12, "componentType" : 5126, "count" : 24, "type" : "VEC3", "max" : [1.0000044107437134, 1.0000044107437134, 1.0000044107437134], "min" : [-1.0000044107437134, 0, -1.0000044107437134], "name" : "NORMAL"}, {"bufferView" : 2, "byteOffset" : 24, "componentType" : 5126, "count" : 24, "type" : "VEC2", "max" : [6.889763832092285, 59.055118560791016], "min" : [-6.889763832092285, -6.889763832092285], "name" : "TEXCOORD_0"}], "asset" : {"generator" : "Aspose.3D 24.9.1", "version" : "2.0"}, "buffers" : [{"uri" : "data:application/octet-stream;base64,", "byteLength" : 13332}], "bufferViews" : [{"buffer" : 0, "byteOffset" : 0, "byteLength" : 840, "target" : 34963}, {"buffer" : 0, "byteOffset" : 844, "byteLength" : 11712, "byteStride" : 32, "target" : 34962}, {"buffer" : 0, "byteOffset" : 12560, "byteLength" : 768, "byteStride" : 32, "target" : 34962}], "materials" : [{"name" : "_defaultMat", "pbrMetallicRoughness" : {"baseColorFactor" : [0.764151, 0.764151, 0.764151, 1], "metallicFactor" : 1, "roughnessFactor" : 1}, "emissiveFactor" : [0, 0, 0], "alphaMode" : "OPAQUE", "doubleSided" : false}, {"name" : "border", "pbrMetallicRoughness" : {"baseColorFactor" : [0.56078434, 0.5686275, 0.6, 1], "metallicFactor" : 1, "roughnessFactor" : 1}, "emissiveFactor" : [0, 0, 0], "alphaMode" : "OPAQUE", "doubleSided" : false}], "meshes" : [{"primitives" : [{"attributes" : {"POSITION" : 1, "NORMAL" : 2, "TEXCOORD_0" : 3}, "indices" : 0, "material" : 0, "mode" : 4}, {"attributes" : {"POSITION" : 5, "NORMAL" : 6, "TEXCOORD_0" : 7}, "indices" : 4, "material" : 1, "mode" : 4}]}], "nodes" : [{"mesh" : 0, "name" : "low_buildingD"}], "scene" : 0, "scenes" : [{"nodes" : [0]}]}