{"extensionsUsed" : ["KHR_materials_unlit"], "accessors" : [{"bufferView" : 0, "byteOffset" : 0, "componentType" : 5123, "count" : 222, "type" : "SCALAR", "max" : [201], "min" : [0]}, {"bufferView" : 1, "byteOffset" : 0, "componentType" : 5126, "count" : 202, "type" : "VEC3", "max" : [0.25, 2, 0.25], "min" : [-0.25, 0, -0.25], "name" : "POSITION"}, {"bufferView" : 1, "byteOffset" : 12, "componentType" : 5126, "count" : 202, "type" : "VEC3", "max" : [1.0000044107437134, 1.0000044107437134, 1.0000044107437134], "min" : [-1.0000044107437134, -1.0000044107437134, -1.0000044107437134], "name" : "NORMAL"}, {"bufferView" : 1, "byteOffset" : 24, "componentType" : 5126, "count" : 202, "type" : "VEC2", "max" : [1.9685039520263672, 76.77165222167969], "min" : [-7.874015808105469, -1.9685039520263672], "name" : "TEXCOORD_0"}, {"bufferView" : 0, "byteOffset" : 444, "componentType" : 5123, "count" : 54, "type" : "SCALAR", "max" : [27], "min" : [0]}, {"bufferView" : 2, "byteOffset" : 0, "componentType" : 5126, "count" : 28, "type" : "VEC3", "max" : [0.20000000298023224, 1.9499999284744263, 0.20000000298023224], "min" : [-0.20000000298023224, 0, -0.20000000298023224], "name" : "POSITION"}, {"bufferView" : 2, "byteOffset" : 12, "componentType" : 5126, "count" : 28, "type" : "VEC3", "max" : [1.0000044107437134, 1.0000044107437134, 1.0000044107437134], "min" : [-1.0000044107437134, 0, -1.0000044107437134], "name" : "NORMAL"}, {"bufferView" : 2, "byteOffset" : 24, "componentType" : 5126, "count" : 28, "type" : "VEC2", "max" : [7.874015808105469, 76.77165222167969], "min" : [-7.874015808105469, -7.874015808105469], "name" : "TEXCOORD_0"}], "asset" : {"generator" : "Aspose.3D 24.9.1", "version" : "2.0"}, "buffers" : [{"uri" : "data:application/octet-stream;base64,", "byteLength" : 7924}], "bufferViews" : [{"buffer" : 0, "byteOffset" : 0, "byteLength" : 552, "target" : 34963}, {"buffer" : 0, "byteOffset" : 556, "byteLength" : 6464, "byteStride" : 32, "target" : 34962}, {"buffer" : 0, "byteOffset" : 7024, "byteLength" : 896, "byteStride" : 32, "target" : 34962}], "materials" : [{"name" : "_defaultMat", "pbrMetallicRoughness" : {"baseColorFactor" : [0.764151, 0.764151, 0.764151, 1], "metallicFactor" : 1, "roughnessFactor" : 1}, "emissiveFactor" : [0, 0, 0], "alphaMode" : "OPAQUE", "doubleSided" : false}, {"name" : "border", "pbrMetallicRoughness" : {"baseColorFactor" : [0.56078434, 0.5686275, 0.6, 1], "metallicFactor" : 1, "roughnessFactor" : 1}, "emissiveFactor" : [0, 0, 0], "alphaMode" : "OPAQUE", "doubleSided" : false}], "meshes" : [{"primitives" : [{"attributes" : {"POSITION" : 1, "NORMAL" : 2, "TEXCOORD_0" : 3}, "indices" : 0, "material" : 0, "mode" : 4}, {"attributes" : {"POSITION" : 5, "NORMAL" : 6, "TEXCOORD_0" : 7}, "indices" : 4, "material" : 1, "mode" : 4}]}], "nodes" : [{"mesh" : 0, "name" : "low_buildingE"}], "scene" : 0, "scenes" : [{"nodes" : [0]}]}