{"extensionsUsed" : ["KHR_materials_unlit"], "accessors" : [{"bufferView" : 0, "byteOffset" : 0, "componentType" : 5123, "count" : 1455, "type" : "SCALAR", "max" : [668], "min" : [0]}, {"bufferView" : 1, "byteOffset" : 0, "componentType" : 5126, "count" : 669, "type" : "VEC3", "max" : [0.6200000047683716, 5.389999866485596, 0.699999988079071], "min" : [-0.6200000047683716, 0, -0.6200000047683716], "name" : "POSITION"}, {"bufferView" : 1, "byteOffset" : 12, "componentType" : 5126, "count" : 669, "type" : "VEC3", "max" : [1.0000044107437134, 1.0000044107437134, 1.0000044107437134], "min" : [-1.0000044107437134, -1.0000044107437134, -1.0000044107437134], "name" : "NORMAL"}, {"bufferView" : 1, "byteOffset" : 24, "componentType" : 5126, "count" : 669, "type" : "VEC2", "max" : [27.55905532836914, 212.20472717285156], "min" : [-27.55905532836914, -27.55905532836914], "name" : "TEXCOORD_0"}, {"bufferView" : 0, "byteOffset" : 2912, "componentType" : 5123, "count" : 306, "type" : "SCALAR", "max" : [181], "min" : [0]}, {"bufferView" : 2, "byteOffset" : 0, "componentType" : 5126, "count" : 182, "type" : "VEC3", "max" : [0.550000011920929, 4.833075046539307, 0.550000011920929], "min" : [-0.550000011920929, 1.2000000476837158, -0.550000011920929], "name" : "POSITION"}, {"bufferView" : 2, "byteOffset" : 12, "componentType" : 5126, "count" : 182, "type" : "VEC3", "max" : [1.0000044107437134, 0, 1.0000044107437134], "min" : [-1.0000044107437134, 0, -1.0000044107437134], "name" : "NORMAL"}, {"bufferView" : 2, "byteOffset" : 24, "componentType" : 5126, "count" : 182, "type" : "VEC2", "max" : [15.80902099609375, 190.27854919433594], "min" : [-15.809020042419434, 47.24409484863281], "name" : "TEXCOORD_0"}, {"bufferView" : 0, "byteOffset" : 3524, "componentType" : 5123, "count" : 660, "type" : "SCALAR", "max" : [331], "min" : [0]}, {"bufferView" : 3, "byteOffset" : 0, "componentType" : 5126, "count" : 332, "type" : "VEC3", "max" : [0.6000000238418579, 5.5, 0.6000000238418579], "min" : [-0.6000000238418579, 0, -0.6000000238418579], "name" : "POSITION"}, {"bufferView" : 3, "byteOffset" : 12, "componentType" : 5126, "count" : 332, "type" : "VEC3", "max" : [1.0000044107437134, 1.0000044107437134, 1.0000044107437134], "min" : [-1.0000044107437134, -0.735119640827179, -1.0000044107437134], "name" : "NORMAL"}, {"bufferView" : 3, "byteOffset" : 24, "componentType" : 5126, "count" : 332, "type" : "VEC2", "max" : [23.622047424316406, 168.26004028320312], "min" : [-23.622047424316406, -21.65354347229004], "name" : "TEXCOORD_0"}, {"bufferView" : 0, "byteOffset" : 4844, "componentType" : 5123, "count" : 354, "type" : "SCALAR", "max" : [213], "min" : [0]}, {"bufferView" : 4, "byteOffset" : 0, "componentType" : 5126, "count" : 214, "type" : "VEC3", "max" : [0.550000011920929, 5.001548767089844, 0.5799999833106995], "min" : [-0.550000011920929, 0.019999999552965164, -0.550000011920929], "name" : "POSITION"}, {"bufferView" : 4, "byteOffset" : 12, "componentType" : 5126, "count" : 214, "type" : "VEC3", "max" : [1.0000044107437134, 0, 1.0000044107437134], "min" : [-1.0000044107437134, 0, -1.0000044107437134], "name" : "NORMAL"}, {"bufferView" : 4, "byteOffset" : 24, "componentType" : 5126, "count" : 214, "type" : "VEC2", "max" : [19.685039520263672, 196.911376953125], "min" : [-19.685039520263672, 0.787401556968689], "name" : "TEXCOORD_0"}, {"bufferView" : 0, "byteOffset" : 5552, "componentType" : 5123, "count" : 111, "type" : "SCALAR", "max" : [105], "min" : [0]}, {"bufferView" : 5, "byteOffset" : 0, "componentType" : 5126, "count" : 106, "type" : "VEC3", "max" : [0.6000000238418579, 5.199999809265137, 0.6000000238418579], "min" : [-0.6000000238418579, 0.4000000059604645, -0.6000000238418579], "name" : "POSITION"}, {"bufferView" : 5, "byteOffset" : 12, "componentType" : 5126, "count" : 106, "type" : "VEC3", "max" : [1.0000044107437134, 0, 1.0000044107437134], "min" : [-1.0000044107437134, -1.0000044107437134, -1.0000044107437134], "name" : "NORMAL"}, {"bufferView" : 5, "byteOffset" : 24, "componentType" : 5126, "count" : 106, "type" : "VEC2", "max" : [23.622047424316406, 152.55426025390625], "min" : [-23.622047424316406, 1.9685039520263672], "name" : "TEXCOORD_0"}, {"bufferView" : 0, "byteOffset" : 5776, "componentType" : 5123, "count" : 72, "type" : "SCALAR", "max" : [35], "min" : [0]}, {"bufferView" : 6, "byteOffset" : 0, "componentType" : 5126, "count" : 36, "type" : "VEC3", "max" : [0.20000000298023224, 0.4000000059604645, 0.7478913068771362], "min" : [-0.20000000298023224, 0.32563260197639465, 0.6000000238418579], "name" : "POSITION"}, {"bufferView" : 6, "byteOffset" : 12, "componentType" : 5126, "count" : 36, "type" : "VEC3", "max" : [1.0000044107437134, 0.9578304886817932, 1.0000044107437134], "min" : [-1.0000044107437134, -0.9578304886817932, -1.0000044107437134], "name" : "NORMAL"}, {"bufferView" : 6, "byteOffset" : 24, "componentType" : 5126, "count" : 36, "type" : "VEC2", "max" : [29.44454002380371, 15.748031616210938], "min" : [-29.44454002380371, -24.518901824951172], "name" : "TEXCOORD_0"}], "asset" : {"generator" : "Aspose.3D 24.9.1", "version" : "2.0"}, "buffers" : [{"uri" : "data:application/octet-stream;base64,", "byteLength" : 55196}], "bufferViews" : [{"buffer" : 0, "byteOffset" : 0, "byteLength" : 5920, "target" : 34963}, {"buffer" : 0, "byteOffset" : 5924, "byteLength" : 21408, "byteStride" : 32, "target" : 34962}, {"buffer" : 0, "byteOffset" : 27336, "byteLength" : 5824, "byteStride" : 32, "target" : 34962}, {"buffer" : 0, "byteOffset" : 33164, "byteLength" : 10624, "byteStride" : 32, "target" : 34962}, {"buffer" : 0, "byteOffset" : 43792, "byteLength" : 6848, "byteStride" : 32, "target" : 34962}, {"buffer" : 0, "byteOffset" : 50644, "byteLength" : 3392, "byteStride" : 32, "target" : 34962}, {"buffer" : 0, "byteOffset" : 54040, "byteLength" : 1152, "byteStride" : 32, "target" : 34962}], "materials" : [{"name" : "border", "pbrMetallicRoughness" : {"baseColorFactor" : [0.56078434, 0.5686275, 0.6, 1], "metallicFactor" : 1, "roughnessFactor" : 1}, "emissiveFactor" : [0, 0, 0], "alphaMode" : "OPAQUE", "doubleSided" : false}, {"name" : "trim", "pbrMetallicRoughness" : {"baseColorFactor" : [0.7372549, 0.8862745, 1, 1], "metallicFactor" : 1, "roughnessFactor" : 1}, "emissiveFactor" : [0, 0, 0], "alphaMode" : "OPAQUE", "doubleSided" : false}, {"name" : "door", "pbrMetallicRoughness" : {"baseColorFactor" : [0.3882353, 0.4, 0.447058827, 1], "metallicFactor" : 1, "roughnessFactor" : 1}, "emissiveFactor" : [0, 0, 0], "alphaMode" : "OPAQUE", "doubleSided" : false}, {"name" : "window", "pbrMetallicRoughness" : {"baseColorFactor" : [0.7372549, 0.8862745, 1, 1], "metallicFactor" : 1, "roughnessFactor" : 1}, "emissiveFactor" : [0, 0, 0], "alphaMode" : "OPAQUE", "doubleSided" : false}, {"name" : "_defaultMat", "pbrMetallicRoughness" : {"baseColorFactor" : [0.764151, 0.764151, 0.764151, 1], "metallicFactor" : 1, "roughnessFactor" : 1}, "emissiveFactor" : [0, 0, 0], "alphaMode" : "OPAQUE", "doubleSided" : false}, {"name" : "roof", "pbrMetallicRoughness" : {"baseColorFactor" : [0.3372549, 0.7372549, 0.6, 1], "metallicFactor" : 1, "roughnessFactor" : 1}, "emissiveFactor" : [0, 0, 0], "alphaMode" : "OPAQUE", "doubleSided" : false}], "meshes" : [{"primitives" : [{"attributes" : {"POSITION" : 1, "NORMAL" : 2, "TEXCOORD_0" : 3}, "indices" : 0, "material" : 0, "mode" : 4}, {"attributes" : {"POSITION" : 5, "NORMAL" : 6, "TEXCOORD_0" : 7}, "indices" : 4, "material" : 1, "mode" : 4}, {"attributes" : {"POSITION" : 9, "NORMAL" : 10, "TEXCOORD_0" : 11}, "indices" : 8, "material" : 2, "mode" : 4}, {"attributes" : {"POSITION" : 13, "NORMAL" : 14, "TEXCOORD_0" : 15}, "indices" : 12, "material" : 3, "mode" : 4}, {"attributes" : {"POSITION" : 17, "NORMAL" : 18, "TEXCOORD_0" : 19}, "indices" : 16, "material" : 4, "mode" : 4}, {"attributes" : {"POSITION" : 21, "NORMAL" : 22, "TEXCOORD_0" : 23}, "indices" : 20, "material" : 5, "mode" : 4}]}], "nodes" : [{"mesh" : 0, "name" : "skyscraperD"}], "scene" : 0, "scenes" : [{"nodes" : [0]}]}