{"extensionsUsed" : ["KHR_materials_unlit"], "accessors" : [{"bufferView" : 0, "byteOffset" : 0, "componentType" : 5123, "count" : 672, "type" : "SCALAR", "max" : [159], "min" : [0]}, {"bufferView" : 1, "byteOffset" : 0, "componentType" : 5126, "count" : 160, "type" : "VEC3", "max" : [0.6000000238418579, 4.267699718475342, 0.6000000238418579], "min" : [-0.6000000238418579, 0.9323005676269531, -0.6000000238418579], "name" : "POSITION"}, {"bufferView" : 1, "byteOffset" : 12, "componentType" : 5126, "count" : 160, "type" : "VEC3", "max" : [1.0000044107437134, 0, 1.0000044107437134], "min" : [-1.0000044107437134, 0, -1.0000044107437134], "name" : "NORMAL"}, {"bufferView" : 1, "byteOffset" : 24, "componentType" : 5126, "count" : 160, "type" : "VEC2", "max" : [15.80902099609375, -34.70474624633789], "min" : [-15.809020042419434, -166.01966857910156], "name" : "TEXCOORD_0"}, {"bufferView" : 0, "byteOffset" : 1344, "componentType" : 5123, "count" : 858, "type" : "SCALAR", "max" : [431], "min" : [0]}, {"bufferView" : 2, "byteOffset" : 0, "componentType" : 5126, "count" : 432, "type" : "VEC3", "max" : [0.6200000047683716, 4.480000019073486, 0.6200000047683716], "min" : [-0.6200000047683716, -1.6362507342514723E-16, -0.6200000047683716], "name" : "POSITION"}, {"bufferView" : 2, "byteOffset" : 12, "componentType" : 5126, "count" : 432, "type" : "VEC3", "max" : [1.0000044107437134, 1.0000044107437134, 1.0000044107437134], "min" : [-1.0000044107437134, -1.0000044107437134, -1.0000044107437134], "name" : "NORMAL"}, {"bufferView" : 2, "byteOffset" : 24, "componentType" : 5126, "count" : 432, "type" : "VEC2", "max" : [24.409448623657227, 26.409448623657227], "min" : [-24.409448623657227, -174.37796020507812], "name" : "TEXCOORD_0"}, {"bufferView" : 0, "byteOffset" : 3060, "componentType" : 5123, "count" : 192, "type" : "SCALAR", "max" : [183], "min" : [0]}, {"bufferView" : 3, "byteOffset" : 0, "componentType" : 5126, "count" : 184, "type" : "VEC3", "max" : [0.6000000238418579, 4.400000095367432, 0.6000000238418579], "min" : [-0.6000000238418579, 0.4000000059604645, -0.6000000238418579], "name" : "POSITION"}, {"bufferView" : 3, "byteOffset" : 12, "componentType" : 5126, "count" : 184, "type" : "VEC3", "max" : [1.0000044107437134, 1.0000044107437134, 1.0000044107437134], "min" : [-1.0000044107437134, -1.0000044107437134, -1.0000044107437134], "name" : "NORMAL"}, {"bufferView" : 3, "byteOffset" : 24, "componentType" : 5126, "count" : 184, "type" : "VEC2", "max" : [23.622047424316406, 2], "min" : [-23.622047424316406, -174.37796020507812], "name" : "TEXCOORD_0"}, {"bufferView" : 0, "byteOffset" : 3444, "componentType" : 5123, "count" : 228, "type" : "SCALAR", "max" : [83], "min" : [0]}, {"bufferView" : 4, "byteOffset" : 0, "componentType" : 5126, "count" : 84, "type" : "VEC3", "max" : [0.6000000238418579, 4.400000095367432, 0.6000000238418579], "min" : [-0.6000000238418579, 1.6852775968085923E-17, -0.6000000238418579], "name" : "POSITION"}, {"bufferView" : 4, "byteOffset" : 12, "componentType" : 5126, "count" : 84, "type" : "VEC3", "max" : [1.0000044107437134, 1.0000044107437134, 1.0000044107437134], "min" : [-1.0000044107437134, 0, -1.0000044107437134], "name" : "NORMAL"}, {"bufferView" : 4, "byteOffset" : 24, "componentType" : 5126, "count" : 84, "type" : "VEC2", "max" : [23.622047424316406, 23.65354347229004], "min" : [-23.622047424316406, -19.65354347229004], "name" : "TEXCOORD_0"}, {"bufferView" : 0, "byteOffset" : 3900, "componentType" : 5123, "count" : 246, "type" : "SCALAR", "max" : [163], "min" : [0]}, {"bufferView" : 5, "byteOffset" : 0, "componentType" : 5126, "count" : 164, "type" : "VEC3", "max" : [0.6000000238418579, 4.234623908996582, 0.6000000238418579], "min" : [-0.6000000238418579, 0.019999999552965164, -0.6000000238418579], "name" : "POSITION"}, {"bufferView" : 5, "byteOffset" : 12, "componentType" : 5126, "count" : 164, "type" : "VEC3", "max" : [1.0000044107437134, 0, 1.0000044107437134], "min" : [-1.0000044107437134, 0, -1.0000044107437134], "name" : "NORMAL"}, {"bufferView" : 5, "byteOffset" : 24, "componentType" : 5126, "count" : 164, "type" : "VEC2", "max" : [19.685039520263672, 1.212598443031311], "min" : [-19.685039520263672, -164.7174835205078], "name" : "TEXCOORD_0"}], "asset" : {"generator" : "Aspose.3D 24.6.0", "version" : "2.0"}, "buffers" : [{"uri" : "data:application/octet-stream;base64,", "byteLength" : 37184}], "bufferViews" : [{"buffer" : 0, "byteOffset" : 0, "byteLength" : 4392, "target" : 34963}, {"buffer" : 0, "byteOffset" : 4396, "byteLength" : 5120, "byteStride" : 32, "target" : 34962}, {"buffer" : 0, "byteOffset" : 9520, "byteLength" : 13824, "byteStride" : 32, "target" : 34962}, {"buffer" : 0, "byteOffset" : 23348, "byteLength" : 5888, "byteStride" : 32, "target" : 34962}, {"buffer" : 0, "byteOffset" : 29240, "byteLength" : 2688, "byteStride" : 32, "target" : 34962}, {"buffer" : 0, "byteOffset" : 31932, "byteLength" : 5248, "byteStride" : 32, "target" : 34962}], "materials" : [{"name" : "trim", "pbrMetallicRoughness" : {"baseColorFactor" : [0.7372549, 0.8862745, 1, 1], "metallicFactor" : 1, "roughnessFactor" : 1}, "emissiveFactor" : [0, 0, 0], "alphaMode" : "OPAQUE", "doubleSided" : false}, {"name" : "border", "pbrMetallicRoughness" : {"baseColorFactor" : [0.56078434, 0.5686275, 0.6, 1], "metallicFactor" : 1, "roughnessFactor" : 1}, "emissiveFactor" : [0, 0, 0], "alphaMode" : "OPAQUE", "doubleSided" : false}, {"name" : "_defaultMat", "pbrMetallicRoughness" : {"baseColorFactor" : [0.764151, 0.764151, 0.764151, 1], "metallicFactor" : 1, "roughnessFactor" : 1}, "emissiveFactor" : [0, 0, 0], "alphaMode" : "OPAQUE", "doubleSided" : false}, {"name" : "door", "pbrMetallicRoughness" : {"baseColorFactor" : [0.3882353, 0.4, 0.447058827, 1], "metallicFactor" : 1, "roughnessFactor" : 1}, "emissiveFactor" : [0, 0, 0], "alphaMode" : "OPAQUE", "doubleSided" : false}, {"name" : "window", "pbrMetallicRoughness" : {"baseColorFactor" : [0.7372549, 0.8862745, 1, 1], "metallicFactor" : 1, "roughnessFactor" : 1}, "emissiveFactor" : [0, 0, 0], "alphaMode" : "OPAQUE", "doubleSided" : false}], "meshes" : [{"primitives" : [{"attributes" : {"POSITION" : 1, "NORMAL" : 2, "TEXCOORD_0" : 3}, "indices" : 0, "material" : 0, "mode" : 4}, {"attributes" : {"POSITION" : 5, "NORMAL" : 6, "TEXCOORD_0" : 7}, "indices" : 4, "material" : 1, "mode" : 4}, {"attributes" : {"POSITION" : 9, "NORMAL" : 10, "TEXCOORD_0" : 11}, "indices" : 8, "material" : 2, "mode" : 4}, {"attributes" : {"POSITION" : 13, "NORMAL" : 14, "TEXCOORD_0" : 15}, "indices" : 12, "material" : 3, "mode" : 4}, {"attributes" : {"POSITION" : 17, "NORMAL" : 18, "TEXCOORD_0" : 19}, "indices" : 16, "material" : 4, "mode" : 4}]}], "nodes" : [{"mesh" : 0, "name" : "skyscraperB"}], "scene" : 0, "scenes" : [{"nodes" : [0]}]}