{"extensionsUsed":["KHR_materials_unlit"],"asset":{"generator":"UniGLTF-1.27","version":"2.0"},"buffers":[{"byteLength":29360,"uri":"skyscraperA.bin"}],"bufferViews":[{"buffer":0,"byteOffset":0,"byteLength":8436,"target":34962},{"buffer":0,"byteOffset":8436,"byteLength":8436,"target":34962},{"buffer":0,"byteOffset":16872,"byteLength":5624,"target":34962},{"buffer":0,"byteOffset":22496,"byteLength":3192,"target":34963},{"buffer":0,"byteOffset":25688,"byteLength":768,"target":34963},{"buffer":0,"byteOffset":26456,"byteLength":768,"target":34963},{"buffer":0,"byteOffset":27224,"byteLength":600,"target":34963},{"buffer":0,"byteOffset":27824,"byteLength":1536,"target":34963}],"accessors":[{"bufferView":0,"byteOffset":0,"type":"VEC3","componentType":5126,"count":703,"max":[0.62,2.87999988,0.62],"min":[-0.62,-1.202224E-31,-0.62],"normalized":false},{"bufferView":1,"byteOffset":0,"type":"VEC3","componentType":5126,"count":703,"normalized":false},{"bufferView":2,"byteOffset":0,"type":"VEC2","componentType":5126,"count":703,"normalized":false},{"bufferView":3,"byteOffset":0,"type":"SCALAR","componentType":5125,"count":798,"normalized":false},{"bufferView":4,"byteOffset":0,"type":"SCALAR","componentType":5125,"count":192,"normalized":false},{"bufferView":5,"byteOffset":0,"type":"SCALAR","componentType":5125,"count":192,"normalized":false},{"bufferView":6,"byteOffset":0,"type":"SCALAR","componentType":5125,"count":150,"normalized":false},{"bufferView":7,"byteOffset":0,"type":"SCALAR","componentType":5125,"count":384,"normalized":false}],"materials":[{"name":"border","pbrMetallicRoughness":{"baseColorFactor":[0.56078434,0.5686275,0.6,1],"metallicFactor":1,"roughnessFactor":1},"doubleSided":false,"alphaMode":"OPAQUE"},{"name":"door","pbrMetallicRoughness":{"baseColorFactor":[0.3882353,0.4,0.447058827,1],"metallicFactor":1,"roughnessFactor":1},"doubleSided":false,"alphaMode":"OPAQUE"},{"name":"_defaultMat","pbrMetallicRoughness":{"baseColorFactor":[0.764151,0.764151,0.764151,1],"metallicFactor":1,"roughnessFactor":1},"doubleSided":false,"alphaMode":"OPAQUE"},{"name":"window","pbrMetallicRoughness":{"baseColorFactor":[0.7372549,0.8862745,1,1],"metallicFactor":1,"roughnessFactor":1},"doubleSided":false,"alphaMode":"OPAQUE"},{"name":"trim","pbrMetallicRoughness":{"baseColorFactor":[0.7372549,0.8862745,1,1],"metallicFactor":1,"roughnessFactor":1},"doubleSided":false,"alphaMode":"OPAQUE"}],"meshes":[{"name":"Mesh skyscraperA","primitives":[{"mode":4,"indices":3,"attributes":{"POSITION":0,"NORMAL":1,"TEXCOORD_0":2},"material":0},{"mode":4,"indices":4,"attributes":{"POSITION":0,"NORMAL":1,"TEXCOORD_0":2},"material":1},{"mode":4,"indices":5,"attributes":{"POSITION":0,"NORMAL":1,"TEXCOORD_0":2},"material":2},{"mode":4,"indices":6,"attributes":{"POSITION":0,"NORMAL":1,"TEXCOORD_0":2},"material":3},{"mode":4,"indices":7,"attributes":{"POSITION":0,"NORMAL":1,"TEXCOORD_0":2},"material":4}]}],"nodes":[{"children":[1],"name":"tmpParent","translation":[0,0,0],"rotation":[0,0,0,1],"scale":[1,1,1]},{"name":"skyscraperA","translation":[0,0,0],"rotation":[0,0,0,1],"scale":[1,1,1],"mesh":0}],"scenes":[{"nodes":[1]}],"scene":0}