{"extensionsUsed" : ["KHR_materials_unlit"], "accessors" : [{"bufferView" : 0, "byteOffset" : 0, "componentType" : 5123, "count" : 738, "type" : "SCALAR", "max" : [379], "min" : [0]}, {"bufferView" : 1, "byteOffset" : 0, "componentType" : 5126, "count" : 380, "type" : "VEC3", "max" : [0.6200000047683716, 4.079999923706055, 0.6200000047683716], "min" : [-0.6200000047683716, -1.804778527019556E-16, -0.6200000047683716], "name" : "POSITION"}, {"bufferView" : 1, "byteOffset" : 12, "componentType" : 5126, "count" : 380, "type" : "VEC3", "max" : [1.0000044107437134, 1.0000044107437134, 1.0000044107437134], "min" : [-1.0000044107437134, -1.0000044107437134, -1.0000044107437134], "name" : "NORMAL"}, {"bufferView" : 1, "byteOffset" : 24, "componentType" : 5126, "count" : 380, "type" : "VEC2", "max" : [24.409448623657227, 160.6299285888672], "min" : [-24.409448623657227, -24.409448623657227], "name" : "TEXCOORD_0"}, {"bufferView" : 0, "byteOffset" : 1476, "componentType" : 5123, "count" : 66, "type" : "SCALAR", "max" : [43], "min" : [0]}, {"bufferView" : 2, "byteOffset" : 0, "componentType" : 5126, "count" : 44, "type" : "VEC3", "max" : [0.5, 3.86769962310791, 0.5799999833106995], "min" : [-0.5, 0.019999999552965164, -0.550000011920929], "name" : "POSITION"}, {"bufferView" : 2, "byteOffset" : 12, "componentType" : 5126, "count" : 44, "type" : "VEC3", "max" : [0, 0, 1.0000044107437134], "min" : [0, 0, -1.0000044107437134], "name" : "NORMAL"}, {"bufferView" : 2, "byteOffset" : 24, "componentType" : 5126, "count" : 44, "type" : "VEC2", "max" : [19.685039520263672, 152.27163696289062], "min" : [-19.685039520263672, 0.787401556968689], "name" : "TEXCOORD_0"}, {"bufferView" : 0, "byteOffset" : 1608, "componentType" : 5123, "count" : 306, "type" : "SCALAR", "max" : [284], "min" : [0]}, {"bufferView" : 3, "byteOffset" : 0, "componentType" : 5126, "count" : 285, "type" : "VEC3", "max" : [0.6000000238418579, 4, 0.6000000238418579], "min" : [-0.6000000238418579, 0.4000000059604645, -0.6000000238418579], "name" : "POSITION"}, {"bufferView" : 3, "byteOffset" : 12, "componentType" : 5126, "count" : 285, "type" : "VEC3", "max" : [1.0000044107437134, 0.44721555709838867, 1.0000044107437134], "min" : [-1.0000044107437134, 0, -1.0000044107437134], "name" : "NORMAL"}, {"bufferView" : 3, "byteOffset" : 24, "componentType" : 5126, "count" : 285, "type" : "VEC2", "max" : [23.622047424316406, 160.6299285888672], "min" : [-23.622047424316406, -23.622047424316406], "name" : "TEXCOORD_0"}, {"bufferView" : 0, "byteOffset" : 2220, "componentType" : 5123, "count" : 258, "type" : "SCALAR", "max" : [89], "min" : [0]}, {"bufferView" : 4, "byteOffset" : 0, "componentType" : 5126, "count" : 90, "type" : "VEC3", "max" : [0.6000000238418579, 4, 0.6000000238418579], "min" : [-0.6000000238418579, -1.804778527019556E-16, -0.6000000238418579], "name" : "POSITION"}, {"bufferView" : 4, "byteOffset" : 12, "componentType" : 5126, "count" : 90, "type" : "VEC3", "max" : [1.0000044107437134, 1.0000044107437134, 1.0000044107437134], "min" : [-1.0000044107437134, 0, -1.0000044107437134], "name" : "NORMAL"}, {"bufferView" : 4, "byteOffset" : 24, "componentType" : 5126, "count" : 90, "type" : "VEC2", "max" : [23.622047424316406, 21.65354347229004], "min" : [-23.622047424316406, -21.65354347229004], "name" : "TEXCOORD_0"}], "asset" : {"generator" : "Aspose.3D 24.9.1", "version" : "2.0"}, "buffers" : [{"uri" : "data:application/octet-stream;base64,", "byteLength" : 28324}], "bufferViews" : [{"buffer" : 0, "byteOffset" : 0, "byteLength" : 2736, "target" : 34963}, {"buffer" : 0, "byteOffset" : 2740, "byteLength" : 12160, "byteStride" : 32, "target" : 34962}, {"buffer" : 0, "byteOffset" : 14904, "byteLength" : 1408, "byteStride" : 32, "target" : 34962}, {"buffer" : 0, "byteOffset" : 16316, "byteLength" : 9120, "byteStride" : 32, "target" : 34962}, {"buffer" : 0, "byteOffset" : 25440, "byteLength" : 2880, "byteStride" : 32, "target" : 34962}], "materials" : [{"name" : "border", "pbrMetallicRoughness" : {"baseColorFactor" : [0.56078434, 0.5686275, 0.6, 1], "metallicFactor" : 1, "roughnessFactor" : 1}, "emissiveFactor" : [0, 0, 0], "alphaMode" : "OPAQUE", "doubleSided" : false}, {"name" : "window", "pbrMetallicRoughness" : {"baseColorFactor" : [0.7372549, 0.8862745, 1, 1], "metallicFactor" : 1, "roughnessFactor" : 1}, "emissiveFactor" : [0, 0, 0], "alphaMode" : "OPAQUE", "doubleSided" : false}, {"name" : "_defaultMat", "pbrMetallicRoughness" : {"baseColorFactor" : [0.764151, 0.764151, 0.764151, 1], "metallicFactor" : 1, "roughnessFactor" : 1}, "emissiveFactor" : [0, 0, 0], "alphaMode" : "OPAQUE", "doubleSided" : false}, {"name" : "door", "pbrMetallicRoughness" : {"baseColorFactor" : [0.3882353, 0.4, 0.447058827, 1], "metallicFactor" : 1, "roughnessFactor" : 1}, "emissiveFactor" : [0, 0, 0], "alphaMode" : "OPAQUE", "doubleSided" : false}], "meshes" : [{"primitives" : [{"attributes" : {"POSITION" : 1, "NORMAL" : 2, "TEXCOORD_0" : 3}, "indices" : 0, "material" : 0, "mode" : 4}, {"attributes" : {"POSITION" : 5, "NORMAL" : 6, "TEXCOORD_0" : 7}, "indices" : 4, "material" : 1, "mode" : 4}, {"attributes" : {"POSITION" : 9, "NORMAL" : 10, "TEXCOORD_0" : 11}, "indices" : 8, "material" : 2, "mode" : 4}, {"attributes" : {"POSITION" : 13, "NORMAL" : 14, "TEXCOORD_0" : 15}, "indices" : 12, "material" : 3, "mode" : 4}]}], "nodes" : [{"mesh" : 0, "name" : "skyscraperF"}], "scene" : 0, "scenes" : [{"nodes" : [0]}]}