{"extensionsUsed" : ["KHR_materials_unlit"], "accessors" : [{"bufferView" : 0, "byteOffset" : 0, "componentType" : 5123, "count" : 798, "type" : "SCALAR", "max" : [391], "min" : [0]}, {"bufferView" : 1, "byteOffset" : 0, "componentType" : 5126, "count" : 392, "type" : "VEC3", "max" : [0.6200000047683716, 2.879999876022339, 0.6200000047683716], "min" : [-0.6200000047683716, -1.2022240344150706E-31, -0.6200000047683716], "name" : "POSITION"}, {"bufferView" : 1, "byteOffset" : 12, "componentType" : 5126, "count" : 392, "type" : "VEC3", "max" : [1.0000044107437134, 1.0000044107437134, 1.0000044107437134], "min" : [-1.0000044107437134, -1.0000044107437134, -1.0000044107437134], "name" : "NORMAL"}, {"bufferView" : 1, "byteOffset" : 24, "componentType" : 5126, "count" : 392, "type" : "VEC2", "max" : [24.409448623657227, 26.409448623657227], "min" : [-24.409448623657227, -111.38582611083984], "name" : "TEXCOORD_0"}, {"bufferView" : 0, "byteOffset" : 1596, "componentType" : 5123, "count" : 192, "type" : "SCALAR", "max" : [75], "min" : [0]}, {"bufferView" : 2, "byteOffset" : 0, "componentType" : 5126, "count" : 76, "type" : "VEC3", "max" : [0.6000000238418579, 2.799999952316284, 0.6000000238418579], "min" : [-0.6000000238418579, 1.804778527019556E-16, -0.6000000238418579], "name" : "POSITION"}, {"bufferView" : 2, "byteOffset" : 12, "componentType" : 5126, "count" : 76, "type" : "VEC3", "max" : [1.0000044107437134, 1.0000044107437134, 1.0000044107437134], "min" : [-1.0000044107437134, 0, -1.0000044107437134], "name" : "NORMAL"}, {"bufferView" : 2, "byteOffset" : 24, "componentType" : 5126, "count" : 76, "type" : "VEC2", "max" : [23.622047424316406, 23.65354347229004], "min" : [-23.622047424316406, -19.65354347229004], "name" : "TEXCOORD_0"}, {"bufferView" : 0, "byteOffset" : 1980, "componentType" : 5123, "count" : 192, "type" : "SCALAR", "max" : [186], "min" : [0]}, {"bufferView" : 3, "byteOffset" : 0, "componentType" : 5126, "count" : 187, "type" : "VEC3", "max" : [0.6000000238418579, 2.799999952316284, 0.6000000238418579], "min" : [-0.6000000238418579, 0.4000000059604645, -0.6000000238418579], "name" : "POSITION"}, {"bufferView" : 3, "byteOffset" : 12, "componentType" : 5126, "count" : 187, "type" : "VEC3", "max" : [1.0000044107437134, 1.0000044107437134, 1.0000044107437134], "min" : [-1.0000044107437134, -1.0000044107437134, -1.0000044107437134], "name" : "NORMAL"}, {"bufferView" : 3, "byteOffset" : 24, "componentType" : 5126, "count" : 187, "type" : "VEC2", "max" : [23.622047424316406, 25.622047424316406], "min" : [-23.622047424316406, -111.38582611083984], "name" : "TEXCOORD_0"}, {"bufferView" : 0, "byteOffset" : 2364, "componentType" : 5123, "count" : 150, "type" : "SCALAR", "max" : [99], "min" : [0]}, {"bufferView" : 4, "byteOffset" : 0, "componentType" : 5126, "count" : 100, "type" : "VEC3", "max" : [0.6000000238418579, 2.6346242427825928, 0.6000000238418579], "min" : [-0.6000000238418579, 0.019999999552965164, -0.6000000238418579], "name" : "POSITION"}, {"bufferView" : 4, "byteOffset" : 12, "componentType" : 5126, "count" : 100, "type" : "VEC3", "max" : [1.0000044107437134, 0, 1.0000044107437134], "min" : [-1.0000044107437134, 0, -1.0000044107437134], "name" : "NORMAL"}, {"bufferView" : 4, "byteOffset" : 24, "componentType" : 5126, "count" : 100, "type" : "VEC2", "max" : [19.685039520263672, 1.212598443031311], "min" : [-19.685039520263672, -101.7253646850586], "name" : "TEXCOORD_0"}, {"bufferView" : 0, "byteOffset" : 2664, "componentType" : 5123, "count" : 384, "type" : "SCALAR", "max" : [95], "min" : [0]}, {"bufferView" : 5, "byteOffset" : 0, "componentType" : 5126, "count" : 96, "type" : "VEC3", "max" : [0.6000000238418579, 2.6676993370056152, 0.6000000238418579], "min" : [-0.6000000238418579, 0.9323005676269531, -0.6000000238418579], "name" : "POSITION"}, {"bufferView" : 5, "byteOffset" : 12, "componentType" : 5126, "count" : 96, "type" : "VEC3", "max" : [1.0000044107437134, 0, 1.0000044107437134], "min" : [-1.0000044107437134, 0, -1.0000044107437134], "name" : "NORMAL"}, {"bufferView" : 5, "byteOffset" : 24, "componentType" : 5126, "count" : 96, "type" : "VEC2", "max" : [15.80902099609375, -34.70474624633789], "min" : [-15.809020042419434, -103.02753448486328], "name" : "TEXCOORD_0"}], "asset" : {"generator" : "Aspose.3D 24.9.1", "version" : "2.0"}, "buffers" : [{"uri" : "data:application/octet-stream;base64,", "byteLength" : 30688}], "bufferViews" : [{"buffer" : 0, "byteOffset" : 0, "byteLength" : 3432, "target" : 34963}, {"buffer" : 0, "byteOffset" : 3436, "byteLength" : 12544, "byteStride" : 32, "target" : 34962}, {"buffer" : 0, "byteOffset" : 15984, "byteLength" : 2432, "byteStride" : 32, "target" : 34962}, {"buffer" : 0, "byteOffset" : 18420, "byteLength" : 5984, "byteStride" : 32, "target" : 34962}, {"buffer" : 0, "byteOffset" : 24408, "byteLength" : 3200, "byteStride" : 32, "target" : 34962}, {"buffer" : 0, "byteOffset" : 27612, "byteLength" : 3072, "byteStride" : 32, "target" : 34962}], "materials" : [{"name" : "border", "pbrMetallicRoughness" : {"baseColorFactor" : [0.56078434, 0.5686275, 0.6, 1], "metallicFactor" : 1, "roughnessFactor" : 1}, "emissiveFactor" : [0, 0, 0], "alphaMode" : "OPAQUE", "doubleSided" : false}, {"name" : "door", "pbrMetallicRoughness" : {"baseColorFactor" : [0.3882353, 0.4, 0.447058827, 1], "metallicFactor" : 1, "roughnessFactor" : 1}, "emissiveFactor" : [0, 0, 0], "alphaMode" : "OPAQUE", "doubleSided" : false}, {"name" : "_defaultMat", "pbrMetallicRoughness" : {"baseColorFactor" : [0.764151, 0.764151, 0.764151, 1], "metallicFactor" : 1, "roughnessFactor" : 1}, "emissiveFactor" : [0, 0, 0], "alphaMode" : "OPAQUE", "doubleSided" : false}, {"name" : "window", "pbrMetallicRoughness" : {"baseColorFactor" : [0.7372549, 0.8862745, 1, 1], "metallicFactor" : 1, "roughnessFactor" : 1}, "emissiveFactor" : [0, 0, 0], "alphaMode" : "OPAQUE", "doubleSided" : false}, {"name" : "trim", "pbrMetallicRoughness" : {"baseColorFactor" : [0.7372549, 0.8862745, 1, 1], "metallicFactor" : 1, "roughnessFactor" : 1}, "emissiveFactor" : [0, 0, 0], "alphaMode" : "OPAQUE", "doubleSided" : false}], "meshes" : [{"primitives" : [{"attributes" : {"POSITION" : 1, "NORMAL" : 2, "TEXCOORD_0" : 3}, "indices" : 0, "material" : 0, "mode" : 4}, {"attributes" : {"POSITION" : 5, "NORMAL" : 6, "TEXCOORD_0" : 7}, "indices" : 4, "material" : 1, "mode" : 4}, {"attributes" : {"POSITION" : 9, "NORMAL" : 10, "TEXCOORD_0" : 11}, "indices" : 8, "material" : 2, "mode" : 4}, {"attributes" : {"POSITION" : 13, "NORMAL" : 14, "TEXCOORD_0" : 15}, "indices" : 12, "material" : 3, "mode" : 4}, {"attributes" : {"POSITION" : 17, "NORMAL" : 18, "TEXCOORD_0" : 19}, "indices" : 16, "material" : 4, "mode" : 4}]}], "nodes" : [{"mesh" : 0, "name" : "skyscraperA"}], "scene" : 0, "scenes" : [{"nodes" : [0]}]}