{"extensionsUsed" : ["KHR_materials_unlit"], "accessors" : [{"bufferView" : 0, "byteOffset" : 0, "componentType" : 5123, "count" : 360, "type" : "SCALAR", "max" : [239], "min" : [0]}, {"bufferView" : 1, "byteOffset" : 0, "componentType" : 5126, "count" : 240, "type" : "VEC3", "max" : [0.6000000238418579, 2.170475721359253, 0.6000000238418579], "min" : [-0.6000000238418579, 0.44999998807907104, -0.6000000238418579], "name" : "POSITION"}, {"bufferView" : 1, "byteOffset" : 12, "componentType" : 5126, "count" : 240, "type" : "VEC3", "max" : [1.0000044107437134, 0, 1.0000044107437134], "min" : [-1.0000044107437134, 0, -1.0000044107437134], "name" : "NORMAL"}, {"bufferView" : 1, "byteOffset" : 24, "componentType" : 5126, "count" : 240, "type" : "VEC2", "max" : [19.123977661132812, 85.4518051147461], "min" : [-19.123977661132812, 17.716535568237305], "name" : "TEXCOORD_0"}, {"bufferView" : 0, "byteOffset" : 720, "componentType" : 5123, "count" : 390, "type" : "SCALAR", "max" : [259], "min" : [0]}, {"bufferView" : 2, "byteOffset" : 0, "componentType" : 5126, "count" : 260, "type" : "VEC3", "max" : [0.6000000238418579, 2.290951728820801, 0.6000000238418579], "min" : [-0.6000000238418579, 0.019999999552965164, -0.6000000238418579], "name" : "POSITION"}, {"bufferView" : 2, "byteOffset" : 12, "componentType" : 5126, "count" : 260, "type" : "VEC3", "max" : [1.0000044107437134, 0, 1.0000044107437134], "min" : [-1.0000044107437134, 0, -1.0000044107437134], "name" : "NORMAL"}, {"bufferView" : 2, "byteOffset" : 24, "componentType" : 5126, "count" : 260, "type" : "VEC2", "max" : [19.685039520263672, 90.19495391845703], "min" : [-19.685039520263672, 0.787401556968689], "name" : "TEXCOORD_0"}, {"bufferView" : 0, "byteOffset" : 1500, "componentType" : 5123, "count" : 2805, "type" : "SCALAR", "max" : [946], "min" : [0]}, {"bufferView" : 3, "byteOffset" : 0, "componentType" : 5126, "count" : 947, "type" : "VEC3", "max" : [0.6200000047683716, 3.1499998569488525, 0.6200000047683716], "min" : [-0.6200000047683716, 0, -0.6200000047683716], "name" : "POSITION"}, {"bufferView" : 3, "byteOffset" : 12, "componentType" : 5126, "count" : 947, "type" : "VEC3", "max" : [1.0000044107437134, 1.0000044107437134, 1.0000044107437134], "min" : [-1.0000044107437134, -1.0000044107437134, -1.0000044107437134], "name" : "NORMAL"}, {"bufferView" : 3, "byteOffset" : 24, "componentType" : 5126, "count" : 947, "type" : "VEC2", "max" : [24.409448623657227, 123.85555267333984], "min" : [-24.409448623657227, -24.409448623657227], "name" : "TEXCOORD_0"}, {"bufferView" : 0, "byteOffset" : 7112, "componentType" : 5123, "count" : 939, "type" : "SCALAR", "max" : [867], "min" : [0]}, {"bufferView" : 4, "byteOffset" : 0, "componentType" : 5126, "count" : 868, "type" : "VEC3", "max" : [0.6000000238418579, 2.950000047683716, 0.6000000238418579], "min" : [-0.6000000238418579, 0.44999998807907104, -0.6000000238418579], "name" : "POSITION"}, {"bufferView" : 4, "byteOffset" : 12, "componentType" : 5126, "count" : 868, "type" : "VEC3", "max" : [1.0000044107437134, 1.0000044107437134, 1.0000044107437134], "min" : [-1.0000044107437134, 0, -1.0000044107437134], "name" : "NORMAL"}, {"bufferView" : 4, "byteOffset" : 24, "componentType" : 5126, "count" : 868, "type" : "VEC2", "max" : [23.622047424316406, 97.6377944946289], "min" : [-23.622047424316406, -0.3773120641708374], "name" : "TEXCOORD_0"}, {"bufferView" : 0, "byteOffset" : 8992, "componentType" : 5123, "count" : 24, "type" : "SCALAR", "max" : [15], "min" : [0]}, {"bufferView" : 5, "byteOffset" : 0, "componentType" : 5126, "count" : 16, "type" : "VEC3", "max" : [0.335999995470047, 2.8500001430511475, 0.335999995470047], "min" : [-0.335999995470047, 2.6500000953674316, -0.335999995470047], "name" : "POSITION"}, {"bufferView" : 5, "byteOffset" : 12, "componentType" : 5126, "count" : 16, "type" : "VEC3", "max" : [0.5874475240707397, 0.8092676997184753, 0.5874475240707397], "min" : [-0.5874475240707397, 0.8092676997184753, -0.5874475240707397], "name" : "NORMAL"}, {"bufferView" : 5, "byteOffset" : 24, "componentType" : 5126, "count" : 16, "type" : "VEC2", "max" : [13.228346824645996, 63.98715591430664], "min" : [-13.228346824645996, 50.58332061767578], "name" : "TEXCOORD_0"}, {"bufferView" : 0, "byteOffset" : 9040, "componentType" : 5123, "count" : 216, "type" : "SCALAR", "max" : [77], "min" : [0]}, {"bufferView" : 6, "byteOffset" : 0, "componentType" : 5126, "count" : 78, "type" : "VEC3", "max" : [0.6000000238418579, 2.4000000953674316, 0.6000000238418579], "min" : [-0.6000000238418579, 0, -0.6000000238418579], "name" : "POSITION"}, {"bufferView" : 6, "byteOffset" : 12, "componentType" : 5126, "count" : 78, "type" : "VEC3", "max" : [1.0000044107437134, 1.0000044107437134, 1.0000044107437134], "min" : [-1.0000044107437134, 0, -1.0000044107437134], "name" : "NORMAL"}, {"bufferView" : 6, "byteOffset" : 24, "componentType" : 5126, "count" : 78, "type" : "VEC2", "max" : [23.622047424316406, 21.65354347229004], "min" : [-23.622047424316406, -21.65354347229004], "name" : "TEXCOORD_0"}], "asset" : {"generator" : "Aspose.3D 24.6.0", "version" : "2.0"}, "buffers" : [{"uri" : "data:application/octet-stream;base64,", "byteLength" : 86588}], "bufferViews" : [{"buffer" : 0, "byteOffset" : 0, "byteLength" : 9472, "target" : 34963}, {"buffer" : 0, "byteOffset" : 9476, "byteLength" : 7680, "byteStride" : 32, "target" : 34962}, {"buffer" : 0, "byteOffset" : 17160, "byteLength" : 8320, "byteStride" : 32, "target" : 34962}, {"buffer" : 0, "byteOffset" : 25484, "byteLength" : 30304, "byteStride" : 32, "target" : 34962}, {"buffer" : 0, "byteOffset" : 55792, "byteLength" : 27776, "byteStride" : 32, "target" : 34962}, {"buffer" : 0, "byteOffset" : 83572, "byteLength" : 512, "byteStride" : 32, "target" : 34962}, {"buffer" : 0, "byteOffset" : 84088, "byteLength" : 2496, "byteStride" : 32, "target" : 34962}], "materials" : [{"name" : "trim", "pbrMetallicRoughness" : {"baseColorFactor" : [0.7372549, 0.8862745, 1, 1], "metallicFactor" : 1, "roughnessFactor" : 1}, "emissiveFactor" : [0, 0, 0], "alphaMode" : "OPAQUE", "doubleSided" : false}, {"name" : "window", "pbrMetallicRoughness" : {"baseColorFactor" : [0.7372549, 0.8862745, 1, 1], "metallicFactor" : 1, "roughnessFactor" : 1}, "emissiveFactor" : [0, 0, 0], "alphaMode" : "OPAQUE", "doubleSided" : false}, {"name" : "border", "pbrMetallicRoughness" : {"baseColorFactor" : [0.56078434, 0.5686275, 0.6, 1], "metallicFactor" : 1, "roughnessFactor" : 1}, "emissiveFactor" : [0, 0, 0], "alphaMode" : "OPAQUE", "doubleSided" : false}, {"name" : "_defaultMat", "pbrMetallicRoughness" : {"baseColorFactor" : [0.764151, 0.764151, 0.764151, 1], "metallicFactor" : 1, "roughnessFactor" : 1}, "emissiveFactor" : [0, 0, 0], "alphaMode" : "OPAQUE", "doubleSided" : false}, {"name" : "roof", "pbrMetallicRoughness" : {"baseColorFactor" : [0.3372549, 0.7372549, 0.6, 1], "metallicFactor" : 1, "roughnessFactor" : 1}, "emissiveFactor" : [0, 0, 0], "alphaMode" : "OPAQUE", "doubleSided" : false}, {"name" : "door", "pbrMetallicRoughness" : {"baseColorFactor" : [0.3882353, 0.4, 0.447058827, 1], "metallicFactor" : 1, "roughnessFactor" : 1}, "emissiveFactor" : [0, 0, 0], "alphaMode" : "OPAQUE", "doubleSided" : false}], "meshes" : [{"primitives" : [{"attributes" : {"POSITION" : 1, "NORMAL" : 2, "TEXCOORD_0" : 3}, "indices" : 0, "material" : 0, "mode" : 4}, {"attributes" : {"POSITION" : 5, "NORMAL" : 6, "TEXCOORD_0" : 7}, "indices" : 4, "material" : 1, "mode" : 4}, {"attributes" : {"POSITION" : 9, "NORMAL" : 10, "TEXCOORD_0" : 11}, "indices" : 8, "material" : 2, "mode" : 4}, {"attributes" : {"POSITION" : 13, "NORMAL" : 14, "TEXCOORD_0" : 15}, "indices" : 12, "material" : 3, "mode" : 4}, {"attributes" : {"POSITION" : 17, "NORMAL" : 18, "TEXCOORD_0" : 19}, "indices" : 16, "material" : 4, "mode" : 4}, {"attributes" : {"POSITION" : 21, "NORMAL" : 22, "TEXCOORD_0" : 23}, "indices" : 20, "material" : 5, "mode" : 4}]}], "nodes" : [{"mesh" : 0, "name" : "skyscraperE"}], "scene" : 0, "scenes" : [{"nodes" : [0]}]}